<svg width="48" height="51" viewBox="0 0 48 51" fill="none" xmlns="http://www.w3.org/2000/svg">
<g filter="url(#filter0_dii_30_12)">
<path d="M42.583 9.067L38.932 5.417C38.377 4.861 37.473 4.861 36.917 5.417L35.199 7.137L40.863 12.801L42.583 11.083C43.139 10.526 43.139 9.625 42.583 9.067Z" fill="#C94F60"/>
<path d="M6.905 35.43L5 43L12.571 41.094L13.365 34.527L6.905 35.43Z" fill="#F0F0F0"/>
<path d="M36.032 17.632L12.572 41.093L6.90698 35.428L30.367 11.967L36.032 17.632Z" fill="#EDBE00"/>
<path d="M30.363 11.968L35.195 7.134L40.863 12.798L36.031 17.632L30.363 11.968Z" fill="url(#paint0_linear_30_12)"/>
<path d="M5.965 39.172L5 43L8.827 42.035L5.965 39.172Z" fill="#787878"/>
</g>
<defs>
<filter id="filter0_dii_30_12" x="-4" y="0" width="56" height="56" filterUnits="userSpaceOnUse" color-interpolation-filters="sRGB">
<feFlood flood-opacity="0" result="BackgroundImageFix"/>
<feColorMatrix in="SourceAlpha" type="matrix" values="0 0 0 0 0 0 0 0 0 0 0 0 0 0 0 0 0 0 127 0" result="hardAlpha"/>
<feOffset dy="4"/>
<feGaussianBlur stdDeviation="2"/>
<feComposite in2="hardAlpha" operator="out"/>
<feColorMatrix type="matrix" values="0 0 0 0 0 0 0 0 0 0 0 0 0 0 0 0 0 0 0.25 0"/>
<feBlend mode="normal" in2="BackgroundImageFix" result="effect1_dropShadow_30_12"/>
<feBlend mode="normal" in="SourceGraphic" in2="effect1_dropShadow_30_12" result="shape"/>
<feColorMatrix in="SourceAlpha" type="matrix" values="0 0 0 0 0 0 0 0 0 0 0 0 0 0 0 0 0 0 127 0" result="hardAlpha"/>
<feOffset dy="4"/>
<feGaussianBlur stdDeviation="2"/>
<feComposite in2="hardAlpha" operator="arithmetic" k2="-1" k3="1"/>
<feColorMatrix type="matrix" values="0 0 0 0 0 0 0 0 0 0 0 0 0 0 0 0 0 0 0.25 0"/>
<feBlend mode="normal" in2="shape" result="effect2_innerShadow_30_12"/>
<feColorMatrix in="SourceAlpha" type="matrix" values="0 0 0 0 0 0 0 0 0 0 0 0 0 0 0 0 0 0 127 0" result="hardAlpha"/>
<feOffset dy="4"/>
<feGaussianBlur stdDeviation="2"/>
<feComposite in2="hardAlpha" operator="arithmetic" k2="-1" k3="1"/>
<feColorMatrix type="matrix" values="0 0 0 0 0 0 0 0 0 0 0 0 0 0 0 0 0 0 0.25 0"/>
<feBlend mode="normal" in2="effect2_innerShadow_30_12" result="effect3_innerShadow_30_12"/>
</filter>
<linearGradient id="paint0_linear_30_12" x1="35.612" y1="7.494" x2="35.612" y2="17.921" gradientUnits="userSpaceOnUse">
<stop stop-color="#DEDEDE"/>
<stop offset="1" stop-color="#D6D6D6"/>
</linearGradient>
</defs>
</svg>
